<svg width="259" height="56" viewBox="0 0 259 56" fill="none" xmlns="http://www.w3.org/2000/svg">
<g clip-path="url(#clip0_600_9732)">
<path fill-rule="evenodd" clip-rule="evenodd" d="M16.4025 16.4807C18.0817 15.5193 20.2407 16.0721 21.2002 17.7545L30.9876 34.7464C31.9472 36.4047 31.3714 38.5677 29.6922 39.5291C28.013 40.4905 25.8541 39.9377 24.8945 38.2553L15.0831 21.2874C14.1236 19.6051 14.7233 17.4661 16.4025 16.4807ZM41.4227 16.2644C41.1109 16.0961 40.775 16 40.4632 16H29.8362C29.5003 16 29.1645 16.0961 28.8766 16.2644C27.9651 16.7931 27.6532 17.9708 28.157 18.8841L33.4585 28.089C33.6264 28.3774 33.8663 28.6658 34.1781 28.8341C35.0897 29.3628 36.2651 29.0504 36.7929 28.1371L42.1184 18.8841C42.6461 17.9708 42.3343 16.7931 41.4227 16.2644Z" fill="#32BB5E"/>
<path d="M51.3749 19.75C52.3926 19.75 53.4347 19.75 54.4524 19.75L57.5542 31.3999L60.7287 19.75C61.698 19.75 62.6673 19.75 63.6608 19.75L59.0324 36.25C58.0389 36.25 57.0696 36.25 56.076 36.25L51.3749 19.75ZM72.1907 29.1412H74.9048L73.5477 23.8869L72.1907 29.1412ZM75.0744 19.75L79.7271 36.25C78.7335 36.25 77.7642 36.25 76.7707 36.25L75.5833 31.804H71.488L70.349 36.25C69.3555 36.25 68.3862 36.25 67.3926 36.25L71.9726 19.75H75.0744V19.75ZM85.3248 19.75C88.3054 19.75 91.2618 19.75 94.2424 19.75V22.4604H88.1842V26.2882H93.8304C93.8304 27.1679 93.8304 28.0713 93.8304 28.951H88.1842V33.5159H94.2909C94.2909 34.4193 94.2909 35.3465 94.2909 36.25H85.3248V19.75V19.75ZM103.354 27.7385L98.8951 19.75C100.034 19.75 101.173 19.75 102.312 19.75L105.074 24.9568L107.885 19.75C108.976 19.75 110.091 19.75 111.181 19.75L106.674 27.6909L111.375 36.25C110.236 36.25 109.097 36.25 107.982 36.25L105.026 30.4726L102.021 36.25C100.906 36.25 99.8159 36.25 98.7012 36.25L103.354 27.7385Z" fill="#F3F3F3"/>
<path d="M125 15H124V40H125V15Z" fill="white" fill-opacity="0.16"/>
<path fill-rule="evenodd" clip-rule="evenodd" d="M138 20.302H143.507C145.914 20.302 147.735 21.015 148.95 22.4621C150.055 23.7578 150.619 25.6154 150.619 28.0127C150.619 30.3673 149.99 32.2245 148.754 33.5854C147.453 35.0108 145.61 35.7233 143.225 35.7233H138V20.302ZM139.323 21.4685V34.5574H143.03C145.09 34.5574 146.673 33.9741 147.757 32.8077C148.798 31.6848 149.318 30.0862 149.318 28.0127C149.318 25.853 148.863 24.2549 147.952 23.1964C146.955 22.0299 145.394 21.4685 143.312 21.4685H139.323ZM157.449 24.2549C159.227 24.2549 160.549 24.8381 161.438 26.0472C162.219 27.1057 162.653 28.5959 162.717 30.5184H153.611C153.676 31.8789 154.044 32.9587 154.717 33.7365C155.411 34.5143 156.321 34.9029 157.492 34.9029C158.511 34.9029 159.335 34.6222 159.964 34.1038C160.484 33.6499 160.874 33.0023 161.156 32.1383H162.479C162.219 33.2181 161.72 34.1038 160.983 34.795C160.072 35.6154 158.923 36.0258 157.492 36.0258C155.909 36.0258 154.652 35.4861 153.719 34.4276C152.744 33.3478 152.267 31.9007 152.267 30.1297C152.267 28.488 152.722 27.1274 153.654 26.0041C154.608 24.8381 155.866 24.2549 157.449 24.2549H157.449ZM157.47 25.3778C156.364 25.3778 155.476 25.7451 154.803 26.5224C154.131 27.2784 153.741 28.2503 153.633 29.4599H161.351C161.135 26.7383 159.834 25.3778 157.47 25.3778H157.47ZM163.541 24.5569H164.972L168.506 34.0821L172.019 24.5569H173.471L169.179 35.7233H167.834L163.541 24.5569ZM179.478 24.2549C181.255 24.2549 182.578 24.8381 183.467 26.0472C184.247 27.1057 184.681 28.5959 184.746 30.5184H175.64C175.705 31.8789 176.073 32.9587 176.746 33.7365C177.439 34.5143 178.35 34.9029 179.521 34.9029C180.54 34.9029 181.364 34.6222 181.993 34.1038C182.513 33.6499 182.903 33.0023 183.185 32.1383H184.508C184.247 33.2181 183.749 34.1038 183.011 34.795C182.101 35.6154 180.952 36.0258 179.521 36.0258C177.938 36.0258 176.681 35.4861 175.748 34.4276C174.773 33.3478 174.295 31.9007 174.295 30.1297C174.295 28.488 174.751 27.1274 175.683 26.0041C176.637 24.8381 177.895 24.2549 179.478 24.2549V24.2549ZM179.499 25.3778C178.393 25.3778 177.505 25.7451 176.832 26.5224C176.16 27.2784 175.77 28.2503 175.662 29.4599H183.38C183.163 26.7383 181.862 25.3778 179.499 25.3778V25.3778ZM187.239 20H188.541V35.7233H187.239V20ZM196.585 24.2549C198.232 24.2549 199.555 24.8381 200.552 26.0258C201.463 27.1274 201.918 28.5097 201.918 30.151C201.918 31.7927 201.463 33.1533 200.552 34.2549C199.555 35.4213 198.232 36.0258 196.585 36.0258C194.937 36.0258 193.614 35.4213 192.617 34.2549C191.706 33.1533 191.251 31.7927 191.251 30.151C191.251 28.5097 191.706 27.1274 192.638 26.0258C193.614 24.8381 194.937 24.2549 196.585 24.2549ZM196.585 25.3778C195.305 25.3778 194.308 25.8531 193.571 26.8467C192.898 27.7107 192.573 28.8118 192.573 30.151C192.573 31.4685 192.898 32.5701 193.571 33.434C194.308 34.4059 195.305 34.9029 196.585 34.9029C197.864 34.9029 198.883 34.4059 199.62 33.434C200.27 32.5487 200.617 31.4472 200.617 30.151C200.617 28.8118 200.27 27.7107 199.62 26.8467C198.883 25.8531 197.864 25.3778 196.585 25.3778ZM209.398 24.2549C210.981 24.2549 212.239 24.8381 213.171 26.0472C213.995 27.1274 214.407 28.488 214.407 30.1728C214.407 31.8141 213.995 33.175 213.193 34.2549C212.282 35.4213 211.047 36.0258 209.442 36.0258C207.642 36.0258 206.341 35.1406 205.517 33.3909V40H204.217V24.5569H205.452V26.7601C206.276 25.0753 207.577 24.2549 209.398 24.2549V24.2549ZM209.247 25.356C208.033 25.356 207.078 25.8313 206.406 26.7819C205.778 27.624 205.474 28.7256 205.474 30.0862V30.3238C205.474 31.663 205.799 32.7646 206.472 33.6286C207.144 34.4925 208.054 34.9242 209.203 34.9242C210.482 34.9242 211.458 34.4494 212.152 33.5419C212.759 32.6998 213.063 31.5764 213.063 30.1728C213.063 28.7687 212.759 27.6458 212.174 26.8032C211.48 25.8313 210.504 25.356 209.247 25.356V25.356ZM221.237 24.2549C223.015 24.2549 224.337 24.8381 225.226 26.0472C226.007 27.1057 226.44 28.5959 226.505 30.5184H217.399C217.464 31.8789 217.833 32.9587 218.505 33.7365C219.199 34.5143 220.109 34.9029 221.28 34.9029C222.299 34.9029 223.123 34.6222 223.752 34.1038C224.272 33.6499 224.663 33.0023 224.944 32.1383H226.267C226.007 33.2181 225.508 34.1038 224.771 34.795C223.86 35.6154 222.711 36.0258 221.28 36.0258C219.697 36.0258 218.44 35.4861 217.508 34.4276C216.532 33.3478 216.055 31.9007 216.055 30.1297C216.055 28.488 216.51 27.1274 217.443 26.0041C218.396 24.8381 219.654 24.2549 221.237 24.2549V24.2549ZM221.259 25.3778C220.153 25.3778 219.264 25.7451 218.592 26.5224C217.92 27.2784 217.529 28.2503 217.421 29.4599H225.14C224.923 26.7383 223.622 25.3778 221.259 25.3778H221.259ZM233.292 24.2549C233.943 24.2549 234.484 24.3193 234.918 24.4925V25.81C234.333 25.6372 233.769 25.5723 233.205 25.5723C232.208 25.5723 231.384 26.0041 230.777 26.9116C230.17 27.732 229.888 28.7038 229.888 29.8272V35.7233H228.587V24.5569H229.888V26.6952C230.191 26.0041 230.603 25.4426 231.124 25.0322C231.731 24.5138 232.468 24.2549 233.292 24.2549V24.2549ZM240.208 24.2549C242.853 24.2549 244.35 25.3995 244.675 27.6889H243.396C243.244 26.9116 242.94 26.3497 242.463 25.9828C241.943 25.5723 241.184 25.3778 240.187 25.3778C239.363 25.3778 238.691 25.5288 238.17 25.8748C237.65 26.2204 237.39 26.6522 237.39 27.2136C237.39 27.7751 237.715 28.229 238.387 28.5746C238.821 28.7905 239.601 29.0494 240.751 29.3519C242.116 29.6975 243.092 30.0431 243.656 30.3887C244.545 30.9288 245 31.6848 245 32.6349C245 34.8812 243.483 36.0258 240.447 36.0258C237.563 36.0258 236.002 34.7515 235.742 32.2032H237.021C237.151 33.175 237.498 33.8875 238.062 34.3197C238.582 34.7084 239.363 34.9029 240.404 34.9029C242.572 34.9029 243.656 34.1687 243.656 32.6998C243.656 32.0304 243.287 31.512 242.55 31.1447C242.16 30.9501 241.336 30.6911 240.057 30.3673C238.756 30.0218 237.845 29.6975 237.325 29.3737C236.457 28.8553 236.045 28.1424 236.045 27.2354C236.045 26.3283 236.436 25.6154 237.26 25.054C238.04 24.5138 239.037 24.2549 240.208 24.2549V24.2549Z" fill="url(#paint0_linear_600_9732)"/>
</g>
<defs>
<linearGradient id="paint0_linear_600_9732" x1="139.769" y1="30" x2="241.499" y2="30" gradientUnits="userSpaceOnUse">
<stop stop-color="#4E7EF2"/>
<stop offset="1" stop-color="#3FE3DD"/>
</linearGradient>
<clipPath id="clip0_600_9732">
<rect width="259" height="56" fill="white"/>
</clipPath>
</defs>
</svg>
