<svg width="273" height="56" viewBox="0 0 273 56" fill="none" xmlns="http://www.w3.org/2000/svg">
<g clip-path="url(#clip0_600_9732)">
<path d="M56.7066 18.2891C57.8843 18.2891 59.09 18.2891 60.2676 18.2891L63.8567 32.0284L67.5298 18.2891C68.6514 18.2891 69.773 18.2891 70.9226 18.2891L65.5671 37.7484C64.4175 37.7484 63.2959 37.7484 62.1463 37.7484L56.7066 18.2891ZM80.7925 29.3646H83.9329L82.3627 23.1679L80.7925 29.3646ZM84.1292 18.2891L89.5128 37.7484C88.3631 37.7484 87.2416 37.7484 86.0919 37.7484L84.718 32.5051H79.9793L78.6615 37.7484C77.5119 37.7484 76.3903 37.7484 75.2407 37.7484L80.5401 18.2891H84.1292V18.2891ZM95.9899 18.2891C99.4387 18.2891 102.86 18.2891 106.308 18.2891V21.4856H99.2985V25.9999H105.832C105.832 27.0374 105.832 28.1029 105.832 29.1403H99.2985V34.5239H106.364C106.364 35.5894 106.364 36.6829 106.364 37.7484H95.9899V18.2891V18.2891ZM116.851 27.7103L111.692 18.2891C113.01 18.2891 114.328 18.2891 115.646 18.2891L118.842 24.4297L122.095 18.2891C123.356 18.2891 124.646 18.2891 125.908 18.2891L120.693 27.6542L126.132 37.7484C124.814 37.7484 123.497 37.7484 122.207 37.7484L118.786 30.9349L115.309 37.7484C114.019 37.7484 112.757 37.7484 111.468 37.7484L116.851 27.7103Z" fill="#F3F3F3"/>
<path fill-rule="evenodd" clip-rule="evenodd" d="M16.0774 14.5608C18.0402 13.4392 20.5638 14.0841 21.6853 16.0469L33.1254 35.8708C34.247 37.8055 33.5741 40.329 31.6113 41.4506C29.6485 42.5722 27.125 41.9273 26.0034 39.9645L14.5353 20.1687C13.4137 18.2059 14.1147 15.7104 16.0774 14.5608ZM45.3226 14.3084C44.9581 14.1122 44.5655 14 44.201 14H31.7795C31.387 14 30.9944 14.1122 30.658 14.3084C29.5925 14.9253 29.2279 16.2992 29.8168 17.3647L36.0135 28.1038C36.2098 28.4403 36.4902 28.7768 36.8547 28.9731C37.9202 29.5899 39.2941 29.2254 39.911 28.1599L46.1357 17.3647C46.7526 16.2992 46.3881 14.9253 45.3226 14.3084Z" fill="#32BB5E"/>
<path d="M140 15H139V40H140V15Z" fill="white" fill-opacity="0.16"/>
<path fill-rule="evenodd" clip-rule="evenodd" d="M153 20.302H158.507C160.914 20.302 162.735 21.015 163.95 22.4621C165.055 23.7578 165.619 25.6154 165.619 28.0127C165.619 30.3673 164.99 32.2245 163.754 33.5854C162.453 35.0108 160.61 35.7233 158.225 35.7233H153V20.302ZM154.323 21.4685V34.5574H158.03C160.09 34.5574 161.673 33.9741 162.757 32.8077C163.798 31.6848 164.318 30.0862 164.318 28.0127C164.318 25.853 163.863 24.2549 162.952 23.1964C161.955 22.0299 160.394 21.4685 158.312 21.4685H154.323ZM172.449 24.2549C174.227 24.2549 175.549 24.8381 176.438 26.0472C177.219 27.1057 177.653 28.5959 177.717 30.5184H168.611C168.676 31.8789 169.044 32.9587 169.717 33.7365C170.411 34.5143 171.321 34.9029 172.492 34.9029C173.511 34.9029 174.335 34.6222 174.964 34.1038C175.484 33.6499 175.874 33.0023 176.156 32.1383H177.479C177.219 33.2181 176.72 34.1038 175.983 34.795C175.072 35.6154 173.923 36.0258 172.492 36.0258C170.909 36.0258 169.652 35.4861 168.719 34.4276C167.744 33.3478 167.267 31.9007 167.267 30.1297C167.267 28.488 167.722 27.1274 168.654 26.0041C169.608 24.8381 170.866 24.2549 172.449 24.2549H172.449ZM172.47 25.3778C171.364 25.3778 170.476 25.7451 169.803 26.5224C169.131 27.2784 168.741 28.2503 168.633 29.4599H176.351C176.135 26.7383 174.834 25.3778 172.47 25.3778H172.47ZM178.541 24.5569H179.972L183.506 34.0821L187.019 24.5569H188.471L184.179 35.7233H182.834L178.541 24.5569ZM194.478 24.2549C196.255 24.2549 197.578 24.8381 198.467 26.0472C199.247 27.1057 199.681 28.5959 199.746 30.5184H190.64C190.705 31.8789 191.073 32.9587 191.746 33.7365C192.439 34.5143 193.35 34.9029 194.521 34.9029C195.54 34.9029 196.364 34.6222 196.993 34.1038C197.513 33.6499 197.903 33.0023 198.185 32.1383H199.508C199.247 33.2181 198.749 34.1038 198.011 34.795C197.101 35.6154 195.952 36.0258 194.521 36.0258C192.938 36.0258 191.681 35.4861 190.748 34.4276C189.773 33.3478 189.295 31.9007 189.295 30.1297C189.295 28.488 189.751 27.1274 190.683 26.0041C191.637 24.8381 192.895 24.2549 194.478 24.2549V24.2549ZM194.499 25.3778C193.393 25.3778 192.505 25.7451 191.832 26.5224C191.16 27.2784 190.77 28.2503 190.662 29.4599H198.38C198.163 26.7383 196.862 25.3778 194.499 25.3778V25.3778ZM202.239 20H203.541V35.7233H202.239V20ZM211.585 24.2549C213.232 24.2549 214.555 24.8381 215.552 26.0258C216.463 27.1274 216.918 28.5097 216.918 30.151C216.918 31.7927 216.463 33.1533 215.552 34.2549C214.555 35.4213 213.232 36.0258 211.585 36.0258C209.937 36.0258 208.614 35.4213 207.617 34.2549C206.706 33.1533 206.251 31.7927 206.251 30.151C206.251 28.5097 206.706 27.1274 207.638 26.0258C208.614 24.8381 209.937 24.2549 211.585 24.2549ZM211.585 25.3778C210.305 25.3778 209.308 25.8531 208.571 26.8467C207.898 27.7107 207.573 28.8118 207.573 30.151C207.573 31.4685 207.898 32.5701 208.571 33.434C209.308 34.4059 210.305 34.9029 211.585 34.9029C212.864 34.9029 213.883 34.4059 214.62 33.434C215.27 32.5487 215.617 31.4472 215.617 30.151C215.617 28.8118 215.27 27.7107 214.62 26.8467C213.883 25.8531 212.864 25.3778 211.585 25.3778ZM224.398 24.2549C225.981 24.2549 227.239 24.8381 228.171 26.0472C228.995 27.1274 229.407 28.488 229.407 30.1728C229.407 31.8141 228.995 33.175 228.193 34.2549C227.282 35.4213 226.047 36.0258 224.442 36.0258C222.642 36.0258 221.341 35.1406 220.517 33.3909V40H219.217V24.5569H220.452V26.7601C221.276 25.0753 222.577 24.2549 224.398 24.2549V24.2549ZM224.247 25.356C223.033 25.356 222.078 25.8313 221.406 26.7819C220.778 27.624 220.474 28.7256 220.474 30.0862V30.3238C220.474 31.663 220.799 32.7646 221.472 33.6286C222.144 34.4925 223.054 34.9242 224.203 34.9242C225.482 34.9242 226.458 34.4494 227.152 33.5419C227.759 32.6998 228.063 31.5764 228.063 30.1728C228.063 28.7687 227.759 27.6458 227.174 26.8032C226.48 25.8313 225.504 25.356 224.247 25.356V25.356ZM236.237 24.2549C238.015 24.2549 239.337 24.8381 240.226 26.0472C241.007 27.1057 241.44 28.5959 241.505 30.5184H232.399C232.464 31.8789 232.833 32.9587 233.505 33.7365C234.199 34.5143 235.109 34.9029 236.28 34.9029C237.299 34.9029 238.123 34.6222 238.752 34.1038C239.272 33.6499 239.663 33.0023 239.944 32.1383H241.267C241.007 33.2181 240.508 34.1038 239.771 34.795C238.86 35.6154 237.711 36.0258 236.28 36.0258C234.697 36.0258 233.44 35.4861 232.508 34.4276C231.532 33.3478 231.055 31.9007 231.055 30.1297C231.055 28.488 231.51 27.1274 232.443 26.0041C233.396 24.8381 234.654 24.2549 236.237 24.2549V24.2549ZM236.259 25.3778C235.153 25.3778 234.264 25.7451 233.592 26.5224C232.92 27.2784 232.529 28.2503 232.421 29.4599H240.14C239.923 26.7383 238.622 25.3778 236.259 25.3778H236.259ZM248.292 24.2549C248.943 24.2549 249.484 24.3193 249.918 24.4925V25.81C249.333 25.6372 248.769 25.5723 248.205 25.5723C247.208 25.5723 246.384 26.0041 245.777 26.9116C245.17 27.732 244.888 28.7038 244.888 29.8272V35.7233H243.587V24.5569H244.888V26.6952C245.191 26.0041 245.603 25.4426 246.124 25.0322C246.731 24.5138 247.468 24.2549 248.292 24.2549V24.2549ZM255.208 24.2549C257.853 24.2549 259.35 25.3995 259.675 27.6889H258.396C258.244 26.9116 257.94 26.3497 257.463 25.9828C256.943 25.5723 256.184 25.3778 255.187 25.3778C254.363 25.3778 253.691 25.5288 253.17 25.8748C252.65 26.2204 252.39 26.6522 252.39 27.2136C252.39 27.7751 252.715 28.229 253.387 28.5746C253.821 28.7905 254.601 29.0494 255.751 29.3519C257.116 29.6975 258.092 30.0431 258.656 30.3887C259.545 30.9288 260 31.6848 260 32.6349C260 34.8812 258.483 36.0258 255.447 36.0258C252.563 36.0258 251.002 34.7515 250.742 32.2032H252.021C252.151 33.175 252.498 33.8875 253.062 34.3197C253.582 34.7084 254.363 34.9029 255.404 34.9029C257.572 34.9029 258.656 34.1687 258.656 32.6998C258.656 32.0304 258.287 31.512 257.55 31.1447C257.16 30.9501 256.336 30.6911 255.057 30.3673C253.756 30.0218 252.845 29.6975 252.325 29.3737C251.457 28.8553 251.045 28.1424 251.045 27.2354C251.045 26.3283 251.436 25.6154 252.26 25.054C253.04 24.5138 254.037 24.2549 255.208 24.2549V24.2549Z" fill="url(#paint0_linear_600_9732)"/>
</g>
<defs>
<linearGradient id="paint0_linear_600_9732" x1="154.769" y1="30" x2="256.499" y2="30" gradientUnits="userSpaceOnUse">
<stop stop-color="#4E7EF2"/>
<stop offset="1" stop-color="#3FE3DD"/>
</linearGradient>
<clipPath id="clip0_600_9732">
<rect width="273" height="56" fill="white"/>
</clipPath>
</defs>
</svg>
